<?xml version="1.0" encoding="UTF-8"?>
<svg width="1069px" height="237px" viewBox="0 0 1069 237" version="1.1" xmlns="http://www.w3.org/2000/svg" xmlns:xlink="http://www.w3.org/1999/xlink">
    <title>Artboard</title>
    <g id="Artboard" stroke="none" stroke-width="1" fill="none" fill-rule="evenodd">
        <g id="Group" transform="translate(1.000000, 3.000000)">
            <polyline id="Path" stroke="#125E8A" stroke-width="7" transform="translate(14.820677, 73.052317) rotate(-2.000000) translate(-14.820677, -73.052317) " points="14.8206771 60.0523166 14.8206771 73.3292381 14.8206771 86.0523166"></polyline>
            <polyline id="Path" stroke="#125E8A" stroke-width="7" transform="translate(17.001896, 135.514243) rotate(-2.000000) translate(-17.001896, -135.514243) " points="17.0018957 117.014243 17.0018957 135.908324 17.0018957 154.014243"></polyline>
            <polyline id="Path" stroke="#125E8A" stroke-width="7" transform="translate(48.817415, 72.365429) rotate(-2.000000) translate(-48.817415, -72.365429) " points="48.817415 56.8654291 48.817415 72.6956047 48.817415 87.8654291"></polyline>
            <polyline id="Path" stroke="#125E8A" stroke-width="7" transform="translate(51.085882, 137.325833) rotate(-2.000000) translate(-51.085882, -137.325833) " points="51.0858823 121.825833 51.0858823 137.656008 51.0858823 152.825833"></polyline>
            <polyline id="Path" stroke="#125E8A" stroke-width="7" transform="translate(82.500057, 62.684024) rotate(-2.000000) translate(-82.500057, -62.684024) " points="82.5000574 88.6840242 82.5000574 64.6162127 82.5000574 36.6840242"></polyline>
            <polyline id="Path" stroke="#125E8A" stroke-width="7" transform="translate(84.960472, 133.141078) rotate(-2.000000) translate(-84.960472, -133.141078) " points="84.9604719 151.641078 84.9604719 134.515904 84.9604719 114.641078"></polyline>
            <polyline id="Path" stroke="#125E8A" stroke-width="7" transform="translate(117.745536, 134.086867) rotate(6.000000) translate(-117.745536, -134.086867) " points="117.745536 152.586867 117.745536 135.461694 117.745536 115.586867"></polyline>
            <polyline id="Path" stroke="#125E8A" stroke-width="7" transform="translate(124.592150, 68.945683) rotate(6.000000) translate(-124.592150, -68.945683) " points="124.59215 87.9456831 124.59215 70.3576671 124.59215 49.9456831"></polyline>
            <path d="M147.066048,159.208788 C147.170698,163.656845 147.296541,169.730388 147.443576,177.429414 C147.590612,185.128441 143.906287,189.838049 136.3906,191.558238" id="Path" stroke="#125E8A" stroke-width="7" transform="translate(141.919204, 175.383513) rotate(33.000000) translate(-141.919204, -175.383513) "></path>
            <path d="M176.48443,118.349226 L176.48443,135.624179 C176.713264,139.354752 176.9012,142.263101 177.048235,144.349226" id="Path" stroke="#125E8A" stroke-width="7" transform="translate(176.766333, 131.349226) rotate(33.000000) translate(-176.766333, -131.349226) "></path>
            <path d="M150.366119,161.567898 L150.366119,174.856324 C150.594953,177.725995 150.782888,179.963186 150.929924,181.567898" id="Path" stroke="#125E8A" stroke-width="7" transform="translate(150.648022, 171.567898) rotate(33.000000) translate(-150.648022, -171.567898) "></path>
            <rect id="Rectangle" fill="#125E8A" x="13" y="206.593979" width="109" height="25"></rect>
            <rect id="Rectangle" fill="#125E8A" x="0" y="171.593979" width="135" height="27"></rect>
            <rect id="Rectangle" fill="#125E8A" x="3" y="138.593979" width="128" height="25"></rect>
            <path d="M28.8582998,76.7659419 L28.8582998,128.765942 L2.8582998,128.765942 L2.8582998,76.7659419 L28.8582998,76.7659419 Z M15.8582998,96.7659419 C11.9923066,96.7659419 8.8582998,99.8999487 8.8582998,103.765942 C8.8582998,107.631935 11.9923066,110.765942 15.8582998,110.765942 C19.7242931,110.765942 22.8582998,107.631935 22.8582998,103.765942 C22.8582998,99.8999487 19.7242931,96.7659419 15.8582998,96.7659419 Z" id="Combined-Shape" fill="#197BBD" transform="translate(15.858300, 102.765942) rotate(-2.000000) translate(-15.858300, -102.765942) "></path>
            <path d="M26.9911767,33.7985327 L26.9911767,64.7985327 L0.991176729,64.7985327 L0.991176729,33.7985327 L26.9911767,33.7985327 Z M13.9911767,41.7985327 C10.1251835,41.7985327 6.99117673,44.9325394 6.99117673,48.7985327 C6.99117673,52.6645259 10.1251835,55.7985327 13.9911767,55.7985327 C17.85717,55.7985327 20.9911767,52.6645259 20.9911767,48.7985327 C20.9911767,44.9325394 17.85717,41.7985327 13.9911767,41.7985327 Z" id="Combined-Shape" fill="#197BBD" transform="translate(13.991177, 49.298533) rotate(-2.000000) translate(-13.991177, -49.298533) "></path>
            <path d="M62.8375879,75.579359 L62.8375879,127.579359 L36.8375879,127.579359 L36.8375879,75.579359 L62.8375879,75.579359 Z M49.8375879,95.579359 C45.9715947,95.579359 42.8375879,98.7133658 42.8375879,102.579359 C42.8375879,106.445352 45.9715947,109.579359 49.8375879,109.579359 C53.7035812,109.579359 56.8375879,106.445352 56.8375879,102.579359 C56.8375879,98.7133658 53.7035812,95.579359 49.8375879,95.579359 Z" id="Combined-Shape" fill="#197BBD" transform="translate(49.837588, 101.579359) rotate(-2.000000) translate(-49.837588, -101.579359) "></path>
            <path d="M60.7261684,18.616214 L60.7261684,63.616214 L34.7261684,63.616214 L34.7261684,18.616214 L60.7261684,18.616214 Z M47.7261684,31.616214 C43.8601751,31.616214 40.7261684,34.7502208 40.7261684,38.616214 C40.7261684,42.4822073 43.8601751,45.616214 47.7261684,45.616214 C51.5921616,45.616214 54.7261684,42.4822073 54.7261684,38.616214 C54.7261684,34.7502208 51.5921616,31.616214 47.7261684,31.616214 Z" id="Combined-Shape" fill="#197BBD" transform="translate(47.726168, 41.116214) rotate(-2.000000) translate(-47.726168, -41.116214) "></path>
            <path d="M96.816876,74.3927762 L96.816876,126.392776 L70.816876,126.392776 L70.816876,74.3927762 L96.816876,74.3927762 Z M83.816876,94.3927762 C79.9508828,94.3927762 76.816876,97.5267829 76.816876,101.392776 C76.816876,105.258769 79.9508828,108.392776 83.816876,108.392776 C87.6828693,108.392776 90.816876,105.258769 90.816876,101.392776 C90.816876,97.5267829 87.6828693,94.3927762 83.816876,94.3927762 Z" id="Combined-Shape" fill="#197BBD" transform="translate(83.816876, 100.392776) rotate(-2.000000) translate(-83.816876, -100.392776) "></path>
            <path d="M94.4088108,0.434809095 L94.4088108,62.4348091 L68.4088108,62.4348091 L68.4088108,0.434809095 L94.4088108,0.434809095 Z M81.4088108,16.4348091 C77.5428175,16.4348091 74.4088108,19.5688158 74.4088108,23.4348091 C74.4088108,27.3008023 77.5428175,30.4348091 81.4088108,30.4348091 C85.274804,30.4348091 88.4088108,27.3008023 88.4088108,23.4348091 C88.4088108,19.5688158 85.274804,16.4348091 81.4088108,16.4348091 Z" id="Combined-Shape" fill="#197BBD" transform="translate(81.408811, 31.434809) rotate(-2.000000) translate(-81.408811, -31.434809) "></path>
            <path d="M163.299624,125.943316 L186.782399,141.193209 L161.184365,180.610725 L137.701589,165.360833 L163.299624,125.943316 Z M161.976974,144.377606 C158.148604,144.915648 155.481267,148.455325 156.019309,152.283694 C156.557352,156.112064 160.097028,158.779401 163.925397,158.241359 C167.753767,157.703317 170.421105,154.163641 169.883062,150.335271 C169.34502,146.506901 165.805344,143.839564 161.976974,144.377606 Z" id="Combined-Shape" fill="#197BBD"></path>
            <path d="M185.397872,90.4913509 L208.880648,105.741244 L193.086116,130.06269 L169.60334,114.812797 L185.397872,90.4913509 Z M188.228069,103.164439 C184.3997,103.702481 181.732362,107.242158 182.270405,111.070527 C182.808447,114.898897 186.348123,117.566234 190.176493,117.028192 C194.004862,116.49015 196.6722,112.950474 196.134158,109.122104 C195.596115,105.293734 192.056439,102.626397 188.228069,103.164439 Z" id="Combined-Shape" fill="#197BBD"></path>
            <path d="M134.170752,75.4981124 L134.170752,127.498112 L108.170752,127.498112 L108.170752,75.4981124 L134.170752,75.4981124 Z M121.170752,95.4981124 C117.304759,95.4981124 114.170752,98.6321191 114.170752,102.498112 C114.170752,106.364106 117.304759,109.498112 121.170752,109.498112 C125.036745,109.498112 128.170752,106.364106 128.170752,102.498112 C128.170752,98.6321191 125.036745,95.4981124 121.170752,95.4981124 Z" id="Combined-Shape" fill="#197BBD" transform="translate(121.170752, 101.498112) rotate(6.000000) translate(-121.170752, -101.498112) "></path>
            <path d="M140.703781,14.8404939 L140.703781,63.8404939 L114.703781,63.8404939 L114.703781,14.8404939 L140.703781,14.8404939 Z M127.703781,28.8404939 C123.837788,28.8404939 120.703781,31.9745007 120.703781,35.8404939 C120.703781,39.7064872 123.837788,42.8404939 127.703781,42.8404939 C131.569774,42.8404939 134.703781,39.7064872 134.703781,35.8404939 C134.703781,31.9745007 131.569774,28.8404939 127.703781,28.8404939 Z" id="Combined-Shape" fill="#197BBD" transform="translate(127.703781, 39.340494) rotate(6.000000) translate(-127.703781, -39.340494) "></path>
        </g>
        <text id="RoGlove" font-family="Raleway-Bold, Raleway" font-size="200" font-weight="bold" fill="#125E8A">
            <tspan x="264" y="189">RoGlove</tspan>
        </text>
    </g>
</svg>